<svg width="186" height="80" viewBox="0 0 186 80" fill="none" xmlns="http://www.w3.org/2000/svg">
<path fill-rule="evenodd" clip-rule="evenodd" d="M21.317 8.80506C23.9027 8.38577 26.3835 8.49059 28.7594 9.11953C29.1787 9.25929 29.3884 9.11952 29.3884 8.70024C29.3185 8.14118 29.1787 7.37249 28.9691 6.39415C28.7594 5.41581 28.3052 4.47241 27.6064 3.56395C26.9774 2.58561 26.034 1.74703 24.7762 1.04822C23.5882 0.349407 22.0159 0 20.0592 0C17.194 0 14.5386 0.628933 12.0927 1.8868C9.71673 3.14466 7.65523 4.85676 5.9082 7.02308C4.16116 9.1894 2.76353 11.7401 1.71531 14.6751C0.736973 17.5402 0.247803 20.5801 0.247803 23.7946C0.247803 27.1489 1.12132 30.6779 2.86836 34.3817C4.61539 38.0854 7.48053 41.265 11.4638 43.9205C11.7433 44.1301 11.8481 44.4446 11.7782 44.8639C11.2891 46.6109 10.9397 48.3929 10.73 50.2098C10.5204 52.0267 10.4155 53.8436 10.4155 55.6605C10.4155 59.4341 10.9397 62.7885 11.9879 65.7235C13.0361 68.6585 14.4337 71.1393 16.1808 73.1658C17.9977 75.1924 20.1291 76.7298 22.5749 77.778C25.0208 78.8961 27.6064 79.4552 30.3317 79.4552C32.7077 79.4552 35.1186 79.0359 37.5645 78.1973C40.0103 77.4286 42.2116 76.2756 44.1683 74.7382C46.125 73.2008 47.7322 71.3839 48.9901 69.2874C50.248 67.191 50.8769 64.815 50.8769 62.1595C50.8769 60.2727 50.3528 58.6305 49.3046 57.2329C48.3262 55.7654 46.8238 55.0316 44.7972 55.0316C43.8189 55.0316 42.9453 55.2762 42.1766 55.7654C41.4778 56.1847 40.9188 56.6389 40.4995 57.1281C40.3597 57.3377 40.4646 57.6172 40.814 57.9666C41.1634 58.2462 41.5128 58.7353 41.8622 59.4341C42.2815 60.0631 42.4911 61.0764 42.4911 62.474C42.4911 63.3126 42.3514 64.3957 42.0718 65.7235C41.7923 67.0512 41.2682 68.379 40.4995 69.7067C39.7308 70.9646 38.6826 72.0827 37.3548 73.061C36.097 73.9695 34.4198 74.4237 32.3234 74.4237C29.8076 74.4237 27.6763 73.9345 25.9292 72.9562C24.2521 71.908 22.8894 70.5802 21.8412 68.973C20.7929 67.2958 20.0242 65.409 19.5351 63.3126C19.0459 61.1462 18.8013 58.945 18.8013 56.7088C18.8013 53.3545 19.2206 50.2098 20.0592 47.2748C20.1989 46.7856 20.4785 46.6109 20.8978 46.7507C26.5582 47.5194 32.1836 47.3796 37.7741 46.3314C43.4345 45.2832 48.5009 43.4662 52.9733 40.8806C57.5156 38.295 61.1844 35.0106 63.9797 31.0273C66.7749 26.9742 68.1725 22.3271 68.1725 17.086C68.1725 15.2691 67.893 13.557 67.334 11.9497C66.8448 10.3425 66.111 8.94482 65.1327 7.75684C64.1544 6.49897 62.8965 5.52063 61.3591 4.82182C59.8217 4.123 58.0747 3.7736 56.118 3.7736C51.7853 3.7736 47.4876 4.64711 43.2249 6.39415C39.032 8.14119 35.0487 10.5521 31.2751 13.6269C27.5714 16.6318 24.2171 20.1957 21.2122 24.3187C18.2772 28.3719 15.9012 32.7744 14.0843 37.5263C13.9446 38.0155 13.665 38.1203 13.2457 37.8408C11.5686 36.9323 10.0661 35.2552 8.73839 32.8093C7.48053 30.3635 6.8516 27.7429 6.8516 24.9477C6.8516 21.8729 7.55041 19.2174 8.94804 16.9812C10.3457 14.6751 12.0927 12.8582 14.1891 11.5304C16.3555 10.1328 18.7314 9.22434 21.317 8.80506ZM30.3317 42.0337C27.4666 42.3831 24.7762 42.2433 22.2604 41.6144C21.8412 41.5445 21.7014 41.265 21.8412 40.7758C22.9593 37.2817 24.6714 33.613 26.9774 29.7695C29.2835 25.926 31.974 22.397 35.0487 19.1825C38.1235 15.898 41.4429 13.2076 45.0068 11.1111C48.6407 8.94482 52.3444 7.86166 56.118 7.86166C59.7518 7.86166 61.5687 10.0629 61.5687 14.4655C61.5687 16.9113 60.9398 19.3921 59.6819 21.9078C58.4241 24.3537 56.7469 26.6947 54.6505 28.9309C52.6239 31.1671 50.248 33.2286 47.5226 35.1154C44.7972 36.9323 41.967 38.4348 39.032 39.6228C36.1668 40.8107 33.2668 41.6144 30.3317 42.0337Z" fill="#2771F0"/>
<path fill-rule="evenodd" clip-rule="evenodd" d="M61.7472 67.1909C59.7207 67.1909 58.2881 66.562 57.4495 65.3041C56.5411 63.9764 56.0869 62.3342 56.0869 60.3775C56.0869 59.0497 56.4013 57.1629 57.0303 54.7171C57.6592 52.2014 58.4628 49.441 59.4412 46.4361C60.4195 43.4312 61.5027 40.2866 62.6906 37.0021C63.8786 33.7177 65.0317 30.608 66.1498 27.673C67.3378 24.6681 68.386 22.0126 69.2944 19.7065C70.2728 17.3305 71.0415 15.5486 71.6005 14.3606C71.7403 14.1509 72.0548 13.9762 72.5439 13.8365C73.0331 13.6967 73.5921 13.6268 74.2211 13.6268C75.1295 13.6268 75.8982 13.8015 76.5272 14.1509C77.226 14.4305 77.5754 14.8148 77.5754 15.304C77.5754 15.4437 77.191 16.492 76.4223 18.4486C75.7235 20.3354 74.85 22.7114 73.8018 25.5765C72.7536 28.4417 71.5656 31.6213 70.2378 35.1153C68.98 38.5395 67.8269 41.8589 66.7787 45.0735C65.7305 48.288 64.822 51.1881 64.0533 53.7737C63.3545 56.3593 63.0051 58.2112 63.0051 59.3293C63.0051 60.1678 63.1798 60.7269 63.5292 61.0064C63.8786 61.2859 64.228 61.4257 64.5774 61.4257C65.4859 61.4257 66.3944 61.0414 67.3028 60.2727C67.9548 59.7209 68.5889 59.0792 69.2049 58.3475C69.1537 57.7623 69.1281 57.1462 69.1281 56.4992C69.1281 53.6341 69.5824 50.6292 70.4908 47.4845C71.3993 44.3398 72.6921 41.4747 74.3692 38.8891C76.0464 36.2336 78.038 34.0673 80.3441 32.3901C82.7201 30.713 85.3406 29.9093 88.2058 29.9792C90.5817 30.0491 92.4336 31.0624 93.7613 33.0191C95.159 34.9757 95.8578 37.2818 95.8578 39.9373C95.8578 42.5928 95.4036 45.6327 94.4951 49.0568C93.5866 52.481 92.224 55.6606 90.407 58.5957C90.6866 58.8752 90.9312 59.0149 91.1408 59.0149C92.005 59.0149 92.8491 58.7927 93.6729 58.3482C93.7065 57.4636 93.9145 56.2882 94.297 54.8222C94.6464 53.215 95.1356 51.4679 95.7645 49.5811C96.3934 47.6245 97.0922 45.6328 97.8609 43.6063C98.6296 41.5098 99.3634 39.5881 100.062 37.841C100.761 36.094 101.39 34.5916 101.949 33.3337C102.508 32.0758 102.927 31.2722 103.207 30.9228C103.417 30.6433 103.871 30.4336 104.57 30.2939C105.268 30.1541 106.002 30.1192 106.771 30.189C107.54 30.189 108.203 30.2939 108.762 30.5035C109.391 30.6433 109.706 30.8878 109.706 31.2373C109.706 31.5168 109.461 32.2505 108.972 33.4385C108.553 34.5566 107.994 35.9543 107.295 37.6314C106.596 39.3086 105.862 41.1604 105.094 43.187C104.325 45.2135 103.591 47.2052 102.892 49.1618C102.864 49.2398 102.835 49.3177 102.806 49.3953C102.901 49.4992 102.891 49.6659 102.776 49.8954C102.519 50.5378 102.252 51.16 101.973 51.7622C101.656 52.7066 101.369 53.6218 101.11 54.5078C100.691 56.115 100.481 57.4078 100.481 58.3862C100.481 59.4344 100.726 60.273 101.215 60.9019C101.774 61.461 102.473 61.7405 103.312 61.7405C104.5 61.7405 105.653 61.1465 106.771 59.9585C107.959 58.7006 109.077 57.1283 110.125 55.2415C111.173 53.2848 112.187 51.1185 113.165 48.7425C114.143 46.3666 115.017 44.0256 115.786 41.7195C116.624 39.4134 117.393 37.282 118.092 35.3253C118.79 33.3686 119.384 31.8312 119.874 30.7131C120.013 30.4336 120.398 30.2589 121.027 30.189C121.656 30.0493 122.284 29.9794 122.913 29.9794C123.682 29.9794 124.486 30.1192 125.324 30.3987C126.233 30.6083 126.687 30.8878 126.687 31.2373C126.687 31.5867 126.442 32.3554 125.953 33.5433C125.534 34.7313 124.975 36.1988 124.276 37.9459C123.577 39.623 122.809 41.5098 121.97 43.6063C121.201 45.6328 120.468 47.6245 119.769 49.5811C119.07 51.5378 118.476 53.3897 117.987 55.1367C117.567 56.8837 117.358 58.2814 117.358 59.3296C117.358 60.1682 117.498 60.7272 117.777 61.0067C118.127 61.2863 118.476 61.426 118.825 61.426C119.734 61.426 120.607 61.0417 121.446 60.273C121.851 59.93 122.243 59.5523 122.62 59.1397C122.583 58.6707 122.564 58.1748 122.564 57.6521C122.564 54.5074 123.123 51.2929 124.241 48.0085C125.359 44.724 126.827 41.7541 128.644 39.0986C130.46 36.3732 132.487 34.137 134.723 32.39C136.959 30.6429 139.231 29.7694 141.537 29.7694C142.585 29.7694 143.458 30.014 144.157 30.5032C144.926 30.9923 145.555 31.6213 146.044 32.39C146.533 33.1587 146.918 33.9972 147.197 34.9057C147.546 35.8142 147.826 36.6877 148.036 37.5263C148.106 37.8058 148.21 37.8058 148.35 37.5263C149.398 35.0105 150.342 32.4249 151.18 29.7694C152.089 27.1139 152.892 24.703 153.591 22.5367C154.29 20.3005 154.849 18.4486 155.268 16.9811C155.758 15.4437 156.072 14.6052 156.212 14.4654C156.491 14.0461 156.98 13.8015 157.679 13.7316C158.448 13.5919 159.182 13.5919 159.881 13.7316C160.649 13.8015 161.313 13.9762 161.872 14.2557C162.501 14.4654 162.85 14.71 162.92 14.9895C162.99 15.269 162.676 16.457 161.977 18.5535C161.278 20.58 160.37 23.0957 159.252 26.1006C158.203 29.0357 157.05 32.2502 155.792 35.7443C154.535 39.2384 153.347 42.5927 152.229 45.8072C151.18 48.9519 150.272 51.7471 149.503 54.193C148.804 56.6388 148.455 58.316 148.455 59.2244C148.455 60.063 148.595 60.657 148.874 61.0064C149.224 61.2859 149.573 61.4257 149.922 61.4257C150.831 61.4257 151.704 61.0414 152.543 60.2727C153.451 59.504 154.29 58.5606 155.059 57.4425C155.897 56.2545 156.631 54.9966 157.26 53.6689C157.959 52.3411 158.553 51.0833 159.042 49.8953C159.252 49.476 159.531 49.2663 159.881 49.2663H161.348C161.837 49.2663 161.977 49.476 161.767 49.8953C161.208 51.2929 160.475 52.9701 159.566 54.9267C158.658 56.8834 157.574 58.7702 156.317 60.5871C156.224 60.7206 156.131 60.8527 156.037 60.9836C156.781 60.3703 157.71 60.0637 158.823 60.0637C159.522 60.0637 160.151 60.1685 160.71 60.3782C161.269 60.5878 161.793 60.7975 162.282 61.0071C162.772 61.2866 163.261 61.6011 163.75 61.9505C164.519 61.8806 165.113 61.6011 165.532 61.1119C166.021 60.5529 166.405 59.9589 166.685 59.33C166.964 58.6311 167.139 57.8974 167.209 57.1287C167.279 56.36 167.314 55.6961 167.314 55.1371C167.314 52.831 167.139 50.7695 166.79 48.9526C166.51 47.0658 166.161 45.3886 165.741 43.9211C165.322 42.4536 164.903 41.1608 164.484 40.0427C164.134 38.8547 163.89 37.7715 163.75 36.7932C163.75 36.5137 163.68 36.5137 163.54 36.7932C162.981 37.7017 162.352 38.8547 161.653 40.2523L159.767 44.4452C159.208 45.8428 158.683 47.1007 158.194 48.2188C157.775 49.3369 157.495 50.0707 157.356 50.4201C157.146 50.7695 156.971 50.9442 156.832 50.9442H154.735C154.456 50.9442 154.386 50.8394 154.526 50.6297C154.875 49.7911 155.364 48.6381 155.993 47.1706C156.622 45.7031 157.321 44.0958 158.089 42.3488C158.858 40.6017 159.662 38.8547 160.5 37.1077C161.409 35.2907 162.282 33.6485 163.121 32.181C164.099 30.434 165.113 28.9315 166.161 27.6737C167.279 26.3459 168.467 25.6821 169.725 25.6821C170.563 25.6821 171.297 25.9266 171.926 26.4158C172.555 26.905 172.869 27.7086 172.869 28.8267C172.869 29.8051 172.59 30.6436 172.031 31.3424C171.542 32.0413 170.983 32.6353 170.354 33.1244C169.585 33.6835 168.746 34.1726 167.838 34.5919C167.838 35.7799 168.187 37.0378 168.886 38.3655C169.655 39.6933 170.458 41.1608 171.297 42.7681C172.136 44.3753 172.904 46.1573 173.603 48.114C174.372 50.0008 174.756 52.1322 174.756 54.5081C174.756 57.0938 174.197 59.2601 173.079 61.0071C171.961 62.6843 170.808 63.8024 169.62 64.3614C170.878 65.0602 172.206 64.9205 173.603 63.9421C175.001 62.8939 176.329 61.4963 177.586 59.7492C178.844 58.0022 179.927 56.1853 180.836 54.2985C181.814 52.4117 182.513 50.9442 182.932 49.896C183.142 49.4767 183.421 49.267 183.771 49.267H185.238C185.728 49.267 185.867 49.4767 185.658 49.896C184.889 51.7828 183.981 53.8093 182.932 55.9757C181.884 58.142 180.696 60.1685 179.368 62.0553C178.041 63.8722 176.573 65.4096 174.966 66.6675C173.359 67.8555 171.612 68.4495 169.725 68.4495C168.746 68.4495 167.733 68.3447 166.685 68.135C165.707 67.8555 164.728 67.4013 163.75 66.7723C163.261 66.9121 162.632 67.0169 161.863 67.0868C161.094 67.1567 160.465 67.1916 159.976 67.1916C158.159 67.1916 156.832 66.8422 155.993 66.1434C155.224 65.3747 154.84 64.5012 154.84 63.5228C154.84 63.0448 154.923 62.6084 155.09 62.2138C154.149 63.3598 153.125 64.39 152.019 65.3041C150.412 66.562 148.63 67.1909 146.673 67.1909C144.786 67.1909 143.354 66.3523 142.375 64.6752C141.397 62.9282 141.082 60.8317 141.432 58.3859C141.432 58.1063 141.327 58.0714 141.117 58.281C140.488 59.2594 139.755 60.2727 138.916 61.3209C138.078 62.2992 137.169 63.2426 136.191 64.1511C135.212 64.9897 134.199 65.6885 133.151 66.2475C132.103 66.8066 131.054 67.0861 130.006 67.0861C129.168 67.0861 128.294 66.9463 127.386 66.6668C126.547 66.3873 125.743 65.8981 124.975 65.1993C124.383 64.5483 123.891 63.747 123.5 62.7954C122.697 63.7112 121.838 64.5476 120.922 65.3044C119.315 66.5623 117.533 67.1912 115.576 67.1912C113.549 67.1912 112.082 66.5623 111.173 65.3044C110.335 64.0466 109.915 62.4742 109.915 60.5874C108.867 62.4742 107.574 64.0466 106.037 65.3044C104.5 66.4924 102.927 67.0864 101.32 67.0864C98.5248 67.0864 96.5681 66.2478 95.45 64.5707C94.7553 63.5491 94.2637 62.4438 93.9753 61.2549C92.8246 61.7183 91.5653 61.95 90.1974 61.95C89.4986 61.95 88.8347 61.8451 88.2058 61.6355C86.8081 63.2428 85.2358 64.5705 83.4888 65.6187C81.7417 66.5971 79.7851 67.0863 77.6187 67.0863C75.3825 67.0863 73.3909 66.2477 71.6439 64.5705C71.0184 63.945 70.5095 63.1786 70.1173 62.2712C69.1893 63.3943 68.1813 64.4053 67.0932 65.3041C65.4859 66.562 63.7039 67.1909 61.7472 67.1909ZM76.8416 49.8953C76.7605 50.0981 76.6757 50.3069 76.5871 50.5216C76.1568 52.4174 75.9416 54.2702 75.9416 56.0799C75.9416 57.4776 76.2561 58.7354 76.885 59.8535C77.5139 60.9017 78.4224 61.4259 79.6104 61.4259C80.7285 61.4259 81.7767 61.1813 82.755 60.6921C83.7334 60.2029 84.6418 59.5391 85.4804 58.7005C85.2708 58.2113 85.1659 57.6173 85.1659 56.9185C85.1659 55.9402 85.4804 54.9968 86.1093 54.0883C86.8081 53.1798 87.8913 52.6557 89.3588 52.516C90.3372 50.3497 91.036 48.1833 91.4553 46.017C91.9444 43.7808 92.189 41.9289 92.189 40.4614C92.189 39.1337 91.9095 37.9457 91.3504 36.8975C90.8613 35.7794 89.8829 35.2203 88.4154 35.2203C86.8081 35.2203 85.2358 35.8842 83.6984 37.2119C82.2309 38.4698 80.9032 40.112 79.7152 42.1386C78.5971 44.1651 77.6886 46.4363 76.9898 48.952C76.9479 49.0986 76.9073 49.2449 76.8679 49.391C76.9667 49.4946 76.9579 49.6627 76.8416 49.8953ZM130.321 60.063C129.832 59.1546 129.587 58.1762 129.587 57.128C129.587 55.1713 129.971 52.9351 130.74 50.4194C131.509 47.8338 132.487 45.4229 133.675 43.1867C134.863 40.8806 136.156 38.9588 137.553 37.4214C139.021 35.8142 140.384 35.0105 141.641 35.0105C143.039 35.0105 143.982 35.6395 144.472 36.8973C145.031 38.1552 145.31 39.3781 145.31 40.5661C145.31 42.6625 144.856 44.9337 143.948 47.3795C143.039 49.8254 141.921 52.0965 140.593 54.193C139.335 56.2894 137.973 58.0365 136.505 59.4341C135.108 60.7618 133.92 61.4257 132.941 61.4257C131.753 61.4257 130.88 60.9715 130.321 60.063Z" fill="#2771F0"/>
</svg>
