<svg width="311" height="32" viewBox="0 0 311 32" fill="none" xmlns="http://www.w3.org/2000/svg">
<path d="M310.977 31.3439H0.657349C14.5107 15.2073 25.8773 21.8808 33.2878 26.2597C38.5088 23.0597 44.7403 24.5755 49.456 27.6071C58.0454 19.1861 65.2875 21.8808 71.6874 24.5755C75.3926 21.7124 79.94 20.8127 86.1715 21.8808C92.5714 14.1335 96.7819 13.2914 104.866 12.3878C112.95 11.4842 119.013 17.5019 122.213 19.4225C129.219 13.0095 138.382 15.47 142.087 17.5019C145.792 11.7757 156.638 0.390502 170.381 0.659973C187.56 0.996812 194.112 16.4034 195.97 19.4225C197.828 19.4225 200.751 18.7065 203.91 20.8127C215.143 6.42002 229.185 12.3878 234.802 15.8982C235.504 14.143 239.365 12.3878 243.929 12.3878C263.236 -0.60072 276.926 13.4409 282.894 20.8127C298.34 15.4769 308.052 25.6103 310.977 31.3439Z" fill="white"/>
</svg>
