<svg width="311" height="32" viewBox="0 0 311 32" fill="none" xmlns="http://www.w3.org/2000/svg">
<path d="M310.833 31.4973H0.512817C14.3661 15.3607 25.7328 22.0341 33.1432 26.413C38.3643 23.2131 44.5958 24.7288 49.3115 27.7604C57.9009 19.3394 65.1429 22.0341 71.5429 24.7288C75.2481 21.8657 79.7954 20.9661 86.0269 22.0341C92.4269 14.2868 96.6374 13.4447 104.721 12.5411C112.806 11.6375 118.869 17.6552 122.069 19.5758C129.075 13.1628 138.237 15.6233 141.942 17.6552C145.647 11.929 156.494 0.543823 170.237 0.813294C187.415 1.15013 193.968 16.5568 195.825 19.5758C197.683 19.5758 200.606 18.8599 203.765 20.9661C214.999 6.57334 229.04 12.5411 234.657 16.0515C235.359 14.2963 239.221 12.5411 243.784 12.5411C263.091 -0.4474 276.782 13.5942 282.75 20.9661C298.195 15.6302 307.908 25.7636 310.833 31.4973Z" fill="white"/>
</svg>
